# xmcd CD database file
#
# Track frame offsets:
#	150
#	12938
#	25857
#	38082
#	51749
#	62649
#	73680
#	87071
#	96602
#	107281
#	120340
#	133179
#	146305
#	159752
#	171828
#
# Disc length: 2465 seconds
#
# Revision: 0
# Processed by: cddbd v1.5.2PL0 Copyright (c) Steve Scherf et al.
# Submitted via: CDex 1.70beta2
#
DISCID=c2099f0f
DTITLE=Time-Life - Treasury of the Blues - 2/2
DYEAR=2003
DGENRE=Blues
TTITLE0=B.B. King - Every Day I Have the Blues
TTITLE1=Muddy Waters - I'm Your Hoochie Coochie Man
TTITLE2=Howlin' Wolf - How Many More Years
TTITLE3=T-Bone Walker - Call It Stormy Monday
TTITLE4=Jimmy Reed - Baby What You Want Me to Do
TTITLE5=Wilbert Harrison - Kansas City
TTITLE6=Buster Brown - Fannie Mae
TTITLE7=Roscoe Gordon - Just a Little Bit
TTITLE8=Buddy Guy - First Time I Met the Blues
TTITLE9=Slim Harpo - Baby Scratch My Back
TTITLE10=Amos Milburn - Chicken-Shack Boogie
TTITLE11=Lightnin' Hopkins - Mojo Hand
TTITLE12=Otis Rush - I Can't Quit You Baby
TTITLE13=Eddie Boyd - Five Long Years
TTITLE14=Arthur Crudup - That's All Right
EXTD=YEAR: 2003
EXTT0=
EXTT1=
EXTT2=
EXTT3=
EXTT4=
EXTT5=
EXTT6=
EXTT7=
EXTT8=
EXTT9=
EXTT10=
EXTT11=
EXTT12=
EXTT13=
EXTT14=
PLAYORDER=
